<svg width="21" height="21" viewBox="0 0 21 21" fill="none" xmlns="http://www.w3.org/2000/svg">
<path d="M10.5 19.8317C10.201 19.8317 9.9128 19.7234 9.68818 19.5266C8.83983 18.7848 8.02192 18.0877 7.3003 17.4728L7.29662 17.4696C5.18095 15.6667 3.35399 14.1097 2.08282 12.5759C0.661858 10.8613 0 9.23557 0 7.45956C0 5.73402 0.591682 4.1421 1.66594 2.97684C2.75301 1.7978 4.24464 1.14844 5.86652 1.14844C7.07872 1.14844 8.18887 1.53168 9.16603 2.28742C9.65918 2.6689 10.1062 3.13577 10.5 3.68035C10.894 3.13577 11.3408 2.6689 11.8341 2.28742C12.8113 1.53168 13.9214 1.14844 15.1336 1.14844C16.7554 1.14844 18.2471 1.7978 19.3342 2.97684C20.4085 4.1421 21 5.73402 21 7.45956C21 9.23557 20.3383 10.8613 18.9173 12.5758C17.6462 14.1097 15.8194 15.6665 13.704 17.4693C12.9811 18.0852 12.1619 18.7834 11.3117 19.527C11.0872 19.7234 10.7988 19.8317 10.5 19.8317ZM5.86652 2.37859C4.59231 2.37859 3.42176 2.88712 2.57021 3.81061C1.70599 4.74804 1.22999 6.04388 1.22999 7.45956C1.22999 8.95326 1.78514 10.2892 3.02987 11.791C4.23294 13.2428 6.02241 14.7677 8.09434 16.5335L8.09818 16.5367C8.82253 17.154 9.64364 17.8538 10.4982 18.6011C11.358 17.8524 12.1804 17.1514 12.9061 16.5331C14.9779 14.7674 16.7672 13.2428 17.9703 11.791C19.2149 10.2892 19.77 8.95326 19.77 7.45956C19.77 6.04388 19.294 4.74804 18.4298 3.81061C17.5784 2.88712 16.4077 2.37859 15.1336 2.37859C14.2002 2.37859 13.3432 2.67531 12.5865 3.26042C11.9122 3.78209 11.4424 4.44154 11.167 4.90297C11.0254 5.14025 10.7761 5.28188 10.5 5.28188C10.2239 5.28188 9.97465 5.14025 9.83302 4.90297C9.55776 4.44154 9.08801 3.78209 8.41349 3.26042C7.65678 2.67531 6.79978 2.37859 5.86652 2.37859Z" fill="#0F2438"/>
</svg>
