<svg width="16" height="18" viewBox="0 0 16 18" fill="none" xmlns="http://www.w3.org/2000/svg">
<path d="M8.125 17.125C12.8137 17.125 15.9283 13.8338 15.9283 9.1885C15.9283 8.65658 15.873 8.246 15.7961 7.8365H8.12608V10.6293H12.7378C12.5493 11.8156 11.3414 14.1318 8.12608 14.1318C5.356 14.1318 3.094 11.8372 3.094 9C3.094 6.16275 5.35492 3.86717 8.12608 3.86717C9.711 3.86717 10.764 4.54317 11.3631 5.1195L13.5688 3.00267C12.1485 1.67342 10.3198 0.875 8.125 0.875C3.63567 0.875 0 4.51067 0 9C0 13.4893 3.63567 17.125 8.125 17.125V17.125Z" fill="white"/>
</svg>
