<svg width="13" height="12" viewBox="0 0 13 12" fill="none" xmlns="http://www.w3.org/2000/svg">
<path d="M6.02448 0.463526C6.17415 0.00287055 6.82586 0.00286993 6.97553 0.463525L8.0716 3.83688C8.13854 4.04289 8.33052 4.18237 8.54713 4.18237H12.0941C12.5784 4.18237 12.7798 4.80218 12.388 5.08688L9.51843 7.17173C9.34319 7.29905 9.26986 7.52474 9.3368 7.73075L10.4329 11.1041C10.5825 11.5648 10.0553 11.9478 9.66345 11.6631L6.7939 9.57827C6.61865 9.45095 6.38136 9.45095 6.20611 9.57827L3.33656 11.6631C2.94471 11.9478 2.41747 11.5648 2.56714 11.1041L3.66321 7.73075C3.73015 7.52474 3.65682 7.29905 3.48158 7.17173L0.61203 5.08688C0.220173 4.80218 0.421561 4.18237 0.905923 4.18237H4.45288C4.66949 4.18237 4.86147 4.04289 4.92841 3.83688L6.02448 0.463526Z" fill="#FFB800"/>
</svg>
