<svg width="20" height="20" viewBox="0 0 20 20" fill="none" xmlns="http://www.w3.org/2000/svg">
<path d="M9.99998 0C4.47714 0 0 4.47714 0 9.99998C0 15.5228 4.47714 20 9.99998 20C15.5228 20 20 15.5228 20 9.99998C19.9941 4.47961 15.5204 0.00590122 9.99998 0ZM9.99998 18.5714C5.26611 18.5714 1.42856 14.7338 1.42856 9.99998C1.42856 5.26611 5.26611 1.42856 9.99998 1.42856C14.7338 1.42856 18.5714 5.26611 18.5714 9.99998C18.5663 14.7318 14.7318 18.5663 9.99998 18.5714Z" fill="#0F2438"/>
<path d="M9.99998 3.57129C9.60547 3.57129 9.28568 3.89109 9.28568 4.28559V9.2856H4.28571C3.89121 9.2856 3.57141 9.60539 3.57141 9.9999C3.57141 10.3944 3.89121 10.7142 4.28571 10.7142H9.99998C10.3945 10.7142 10.7143 10.3944 10.7143 9.99985V4.28559C10.7143 3.89109 10.3945 3.57129 9.99998 3.57129Z" fill="#0F2438"/>
</svg>
