<svg width="21" height="21" viewBox="0 0 21 21" fill="none" xmlns="http://www.w3.org/2000/svg">
<g clip-path="url(#clip0_3622:2336)">
<path d="M7.98108 15.697C6.51904 15.697 5.32959 16.8865 5.32959 18.3485C5.32959 19.8105 6.51904 21 7.98108 21C9.44311 21 10.6326 19.8105 10.6326 18.3485C10.6326 16.8865 9.44307 15.697 7.98108 15.697ZM7.98108 19.4091C7.39615 19.4091 6.9205 18.9334 6.9205 18.3485C6.9205 17.7636 7.39615 17.2879 7.98108 17.2879C8.56571 17.2879 9.04165 17.7636 9.04165 18.3485C9.04165 18.9334 8.566 19.4091 7.98108 19.4091Z" fill="#0F2438" stroke="white" stroke-width="0.3"/>
<path d="M15.8297 15.697C14.3677 15.697 13.1782 16.8865 13.1782 18.3485C13.1782 19.8105 14.3677 21 15.8297 21C17.2917 21 18.4812 19.8105 18.4812 18.3485C18.4812 16.8865 17.2917 15.697 15.8297 15.697ZM15.8297 19.4091C15.2448 19.4091 14.7691 18.9334 14.7691 18.3485C14.7691 17.7636 15.2448 17.2879 15.8297 17.2879C16.4146 17.2879 16.8903 17.7636 16.8903 18.3485C16.8903 18.9334 16.4146 19.4091 15.8297 19.4091Z" fill="#0F2438" stroke="white" stroke-width="0.3"/>
<path d="M20.4294 5.1792C20.2782 4.98934 20.0491 4.8788 19.8068 4.8788H5.87863L5.15557 1.22452C5.0922 0.904481 4.83979 0.655517 4.51868 0.59666L1.33691 0.0133381C0.903949 -0.0664781 0.490308 0.220179 0.411025 0.652359C0.331742 1.08454 0.617825 1.49896 1.05005 1.57824L3.69993 2.06399L6.03429 13.8628C6.10799 14.2353 6.43493 14.5039 6.81461 14.5039H17.9508C18.3212 14.5039 18.6423 14.2486 18.7258 13.8871L20.5819 5.8532C20.6364 5.61695 20.5803 5.36877 20.4294 5.1792ZM17.3181 12.913H7.4679L6.19334 6.46995H18.8064L17.3181 12.913Z" fill="#0F2438" stroke="white" stroke-width="0.3"/>
</g>
<defs>
<clipPath id="clip0_3622:2336">
<rect width="21" height="21" fill="white"/>
</clipPath>
</defs>
</svg>
